<svg width="23" height="23" viewBox="0 0 23 23" fill="none" xmlns="http://www.w3.org/2000/svg">
<path d="M9.69176 19.1022C7.26176 21.5481 3.13235 22.3581 0.75 19.9122C3.92647 16.6246 0.75 15.0364 3.13235 12.654C3.55068 12.188 4.05961 11.8123 4.62809 11.5496C5.19655 11.287 5.8126 11.1431 6.43858 11.1266C7.06457 11.1101 7.68735 11.2215 8.26883 11.4538C8.85033 11.6862 9.37834 12.0347 9.82059 12.478C10.2628 12.9213 10.61 13.4502 10.841 14.0323C11.0719 14.6143 11.1817 15.2373 11.1637 15.8633C11.1457 16.4893 11.0003 17.1049 10.7363 17.6728C10.4723 18.2406 10.0952 18.7485 9.62823 19.1658L9.69176 19.1022Z" stroke="black" stroke-width="1.5" stroke-linecap="round" stroke-linejoin="round"/>
<path d="M7.41406 11.2006L15.8395 1.80419C17.0372 0.457852 19.1989 0.3912 20.4771 1.66125C21.7479 2.93954 21.681 5.10141 20.3342 6.29889L11.0325 14.6281" stroke="black" stroke-width="1.5" stroke-linecap="round" stroke-linejoin="round"/>
</svg>
