<svg width="23" height="23" viewBox="0 0 23 23" fill="none" xmlns="http://www.w3.org/2000/svg">
  <path d="M8.69118 4.72059C8.69118 3.66752 8.27285 2.65758 7.52822 1.91295C6.78359 1.16833 5.77365 0.75 4.72059 0.75C3.66752 0.75 2.65758 1.16833 1.91295 1.91295C1.16833 2.65758 0.75 3.66752 0.75 4.72059V16.6324L4.72059 21.3971L8.69118 16.6324V4.72059Z" stroke="black" stroke-width="1.5" stroke-linecap="round" stroke-linejoin="round"/>
  <path d="M0.75 7.10156H8.69118" stroke="black" stroke-width="1.5" stroke-linecap="round" stroke-linejoin="round"/>
  <path d="M11.8672 3.92647C11.8672 3.08402 12.2018 2.27607 12.7976 1.68037C13.3933 1.08466 14.2012 0.75 15.0437 0.75C15.8861 0.75 16.694 1.08466 17.2897 1.68037C17.8855 2.27607 18.2201 3.08402 18.2201 3.92647V16.6324C18.2201 17.0536 18.0527 17.4576 17.7549 17.7554C17.4571 18.0532 17.0531 18.2206 16.6319 18.2206H13.4554C13.0342 18.2206 12.6302 18.0532 12.3324 17.7554C12.0345 17.4576 11.8672 17.0536 11.8672 16.6324V3.92647Z" stroke="black" stroke-width="1.5" stroke-linecap="round" stroke-linejoin="round"/>
  <path d="M15.043 18.2188V21.3952" stroke="black" stroke-width="1.5" stroke-linecap="round" stroke-linejoin="round"/>
  <path d="M11.8672 7.10156H19.8084C20.2296 7.10156 20.6336 7.2689 20.9314 7.56674C21.2292 7.8646 21.3966 8.26857 21.3966 8.6898V15.0427" stroke="black" stroke-width="1.5" stroke-linecap="round" stroke-linejoin="round"/>
</svg>
