<svg width="23" height="23" viewBox="0 0 23 23" fill="none" xmlns="http://www.w3.org/2000/svg">
<path d="M7.89706 19.3972L0.75 21.3984L2.75118 14.2514L15.8382 1.22786C15.9861 1.07659 16.1629 0.956391 16.3577 0.874332C16.5528 0.792271 16.7623 0.75 16.9738 0.75C17.1854 0.75 17.3949 0.792271 17.5899 0.874332C17.7848 0.956391 17.9615 1.07659 18.1094 1.22786L20.9206 4.05492C21.0694 4.20256 21.1876 4.37823 21.2683 4.57176C21.3489 4.7653 21.3904 4.9729 21.3904 5.18256C21.3904 5.39223 21.3489 5.59983 21.2683 5.79337C21.1876 5.98691 21.0694 6.16257 20.9206 6.31021L7.89706 19.3972Z" stroke="black" stroke-width="1.5" stroke-linecap="round" stroke-linejoin="round"/>
</svg>
